<?xml version="1.0" encoding="utf-8" standalone="no"?>
<!DOCTYPE svg PUBLIC "-//W3C//DTD SVG 1.1//EN"
  "http://www.w3.org/Graphics/SVG/1.1/DTD/svg11.dtd">
<svg height="396pt" version="1.1" viewBox="0 0 576 396" width="576pt" xmlns="http://www.w3.org/2000/svg" xmlns:xlink="http://www.w3.org/1999/xlink">
 <metadata>
  <rdf:RDF xmlns:cc="http://creativecommons.org/ns#" xmlns:dc="http://purl.org/dc/elements/1.1/" xmlns:rdf="http://www.w3.org/1999/02/22-rdf-syntax-ns#">
   <cc:Work>
    <dc:type rdf:resource="http://purl.org/dc/dcmitype/StillImage"/>
    <dc:date>2022-11-22T13:17:23.193835</dc:date>
    <dc:format>image/svg+xml</dc:format>
    <dc:creator>
     <cc:Agent>
      <dc:title>Matplotlib v3.4.3, https://matplotlib.org/</dc:title>
     </cc:Agent>
    </dc:creator>
   </cc:Work>
  </rdf:RDF>
 </metadata>
 <defs>
  <style type="text/css">*{stroke-linecap:butt;stroke-linejoin:round;}</style>
 </defs>
 <g id="figure_1">
  <g id="patch_1">
   <path d="M 0 396 
L 576 396 
L 576 0 
L 0 0 
z
" style="fill:#ffffff;"/>
  </g>
  <g id="axes_1">
   <g id="patch_2">
    <path d="M 72 346.5 
L 518.4 346.5 
L 518.4 47.52 
L 72 47.52 
z
" style="fill:#eaeaf2;"/>
   </g>
   <g id="matplotlib.axis_1">
    <g id="xtick_1">
     <g id="line2d_1">
      <path clip-path="url(#p422a10c4b2)" d="M 112.581818 346.5 
L 112.581818 47.52 
" style="fill:none;stroke:#ffffff;stroke-linecap:round;"/>
     </g>
     <g id="line2d_2"/>
     <g id="text_1">
      <!-- 400 -->
      <g style="fill:#262626;" transform="translate(103.038068 361.098437)scale(0.1 -0.1)">
       <defs>
        <path d="M 2419 4116 
L 825 1625 
L 2419 1625 
L 2419 4116 
z
M 2253 4666 
L 3047 4666 
L 3047 1625 
L 3713 1625 
L 3713 1100 
L 3047 1100 
L 3047 0 
L 2419 0 
L 2419 1100 
L 313 1100 
L 313 1709 
L 2253 4666 
z
" id="DejaVuSans-34" transform="scale(0.015625)"/>
        <path d="M 2034 4250 
Q 1547 4250 1301 3770 
Q 1056 3291 1056 2328 
Q 1056 1369 1301 889 
Q 1547 409 2034 409 
Q 2525 409 2770 889 
Q 3016 1369 3016 2328 
Q 3016 3291 2770 3770 
Q 2525 4250 2034 4250 
z
M 2034 4750 
Q 2819 4750 3233 4129 
Q 3647 3509 3647 2328 
Q 3647 1150 3233 529 
Q 2819 -91 2034 -91 
Q 1250 -91 836 529 
Q 422 1150 422 2328 
Q 422 3509 836 4129 
Q 1250 4750 2034 4750 
z
" id="DejaVuSans-30" transform="scale(0.015625)"/>
       </defs>
       <use xlink:href="#DejaVuSans-34"/>
       <use x="63.623047" xlink:href="#DejaVuSans-30"/>
       <use x="127.246094" xlink:href="#DejaVuSans-30"/>
      </g>
     </g>
    </g>
    <g id="xtick_2">
     <g id="line2d_3">
      <path clip-path="url(#p422a10c4b2)" d="M 163.309091 346.5 
L 163.309091 47.52 
" style="fill:none;stroke:#ffffff;stroke-linecap:round;"/>
     </g>
     <g id="line2d_4"/>
     <g id="text_2">
      <!-- 450 -->
      <g style="fill:#262626;" transform="translate(153.765341 361.098437)scale(0.1 -0.1)">
       <defs>
        <path d="M 691 4666 
L 3169 4666 
L 3169 4134 
L 1269 4134 
L 1269 2991 
Q 1406 3038 1543 3061 
Q 1681 3084 1819 3084 
Q 2600 3084 3056 2656 
Q 3513 2228 3513 1497 
Q 3513 744 3044 326 
Q 2575 -91 1722 -91 
Q 1428 -91 1123 -41 
Q 819 9 494 109 
L 494 744 
Q 775 591 1075 516 
Q 1375 441 1709 441 
Q 2250 441 2565 725 
Q 2881 1009 2881 1497 
Q 2881 1984 2565 2268 
Q 2250 2553 1709 2553 
Q 1456 2553 1204 2497 
Q 953 2441 691 2322 
L 691 4666 
z
" id="DejaVuSans-35" transform="scale(0.015625)"/>
       </defs>
       <use xlink:href="#DejaVuSans-34"/>
       <use x="63.623047" xlink:href="#DejaVuSans-35"/>
       <use x="127.246094" xlink:href="#DejaVuSans-30"/>
      </g>
     </g>
    </g>
    <g id="xtick_3">
     <g id="line2d_5">
      <path clip-path="url(#p422a10c4b2)" d="M 214.036364 346.5 
L 214.036364 47.52 
" style="fill:none;stroke:#ffffff;stroke-linecap:round;"/>
     </g>
     <g id="line2d_6"/>
     <g id="text_3">
      <!-- 500 -->
      <g style="fill:#262626;" transform="translate(204.492614 361.098437)scale(0.1 -0.1)">
       <use xlink:href="#DejaVuSans-35"/>
       <use x="63.623047" xlink:href="#DejaVuSans-30"/>
       <use x="127.246094" xlink:href="#DejaVuSans-30"/>
      </g>
     </g>
    </g>
    <g id="xtick_4">
     <g id="line2d_7">
      <path clip-path="url(#p422a10c4b2)" d="M 264.763636 346.5 
L 264.763636 47.52 
" style="fill:none;stroke:#ffffff;stroke-linecap:round;"/>
     </g>
     <g id="line2d_8"/>
     <g id="text_4">
      <!-- 550 -->
      <g style="fill:#262626;" transform="translate(255.219886 361.098437)scale(0.1 -0.1)">
       <use xlink:href="#DejaVuSans-35"/>
       <use x="63.623047" xlink:href="#DejaVuSans-35"/>
       <use x="127.246094" xlink:href="#DejaVuSans-30"/>
      </g>
     </g>
    </g>
    <g id="xtick_5">
     <g id="line2d_9">
      <path clip-path="url(#p422a10c4b2)" d="M 315.490909 346.5 
L 315.490909 47.52 
" style="fill:none;stroke:#ffffff;stroke-linecap:round;"/>
     </g>
     <g id="line2d_10"/>
     <g id="text_5">
      <!-- 600 -->
      <g style="fill:#262626;" transform="translate(305.947159 361.098437)scale(0.1 -0.1)">
       <defs>
        <path d="M 2113 2584 
Q 1688 2584 1439 2293 
Q 1191 2003 1191 1497 
Q 1191 994 1439 701 
Q 1688 409 2113 409 
Q 2538 409 2786 701 
Q 3034 994 3034 1497 
Q 3034 2003 2786 2293 
Q 2538 2584 2113 2584 
z
M 3366 4563 
L 3366 3988 
Q 3128 4100 2886 4159 
Q 2644 4219 2406 4219 
Q 1781 4219 1451 3797 
Q 1122 3375 1075 2522 
Q 1259 2794 1537 2939 
Q 1816 3084 2150 3084 
Q 2853 3084 3261 2657 
Q 3669 2231 3669 1497 
Q 3669 778 3244 343 
Q 2819 -91 2113 -91 
Q 1303 -91 875 529 
Q 447 1150 447 2328 
Q 447 3434 972 4092 
Q 1497 4750 2381 4750 
Q 2619 4750 2861 4703 
Q 3103 4656 3366 4563 
z
" id="DejaVuSans-36" transform="scale(0.015625)"/>
       </defs>
       <use xlink:href="#DejaVuSans-36"/>
       <use x="63.623047" xlink:href="#DejaVuSans-30"/>
       <use x="127.246094" xlink:href="#DejaVuSans-30"/>
      </g>
     </g>
    </g>
    <g id="xtick_6">
     <g id="line2d_11">
      <path clip-path="url(#p422a10c4b2)" d="M 366.218182 346.5 
L 366.218182 47.52 
" style="fill:none;stroke:#ffffff;stroke-linecap:round;"/>
     </g>
     <g id="line2d_12"/>
     <g id="text_6">
      <!-- 650 -->
      <g style="fill:#262626;" transform="translate(356.674432 361.098437)scale(0.1 -0.1)">
       <use xlink:href="#DejaVuSans-36"/>
       <use x="63.623047" xlink:href="#DejaVuSans-35"/>
       <use x="127.246094" xlink:href="#DejaVuSans-30"/>
      </g>
     </g>
    </g>
    <g id="xtick_7">
     <g id="line2d_13">
      <path clip-path="url(#p422a10c4b2)" d="M 416.945455 346.5 
L 416.945455 47.52 
" style="fill:none;stroke:#ffffff;stroke-linecap:round;"/>
     </g>
     <g id="line2d_14"/>
     <g id="text_7">
      <!-- 700 -->
      <g style="fill:#262626;" transform="translate(407.401705 361.098437)scale(0.1 -0.1)">
       <defs>
        <path d="M 525 4666 
L 3525 4666 
L 3525 4397 
L 1831 0 
L 1172 0 
L 2766 4134 
L 525 4134 
L 525 4666 
z
" id="DejaVuSans-37" transform="scale(0.015625)"/>
       </defs>
       <use xlink:href="#DejaVuSans-37"/>
       <use x="63.623047" xlink:href="#DejaVuSans-30"/>
       <use x="127.246094" xlink:href="#DejaVuSans-30"/>
      </g>
     </g>
    </g>
    <g id="xtick_8">
     <g id="line2d_15">
      <path clip-path="url(#p422a10c4b2)" d="M 467.672727 346.5 
L 467.672727 47.52 
" style="fill:none;stroke:#ffffff;stroke-linecap:round;"/>
     </g>
     <g id="line2d_16"/>
     <g id="text_8">
      <!-- 750 -->
      <g style="fill:#262626;" transform="translate(458.128977 361.098437)scale(0.1 -0.1)">
       <use xlink:href="#DejaVuSans-37"/>
       <use x="63.623047" xlink:href="#DejaVuSans-35"/>
       <use x="127.246094" xlink:href="#DejaVuSans-30"/>
      </g>
     </g>
    </g>
    <g id="xtick_9">
     <g id="line2d_17">
      <path clip-path="url(#p422a10c4b2)" d="M 518.4 346.5 
L 518.4 47.52 
" style="fill:none;stroke:#ffffff;stroke-linecap:round;"/>
     </g>
     <g id="line2d_18"/>
     <g id="text_9">
      <!-- 800 -->
      <g style="fill:#262626;" transform="translate(508.85625 361.098437)scale(0.1 -0.1)">
       <defs>
        <path d="M 2034 2216 
Q 1584 2216 1326 1975 
Q 1069 1734 1069 1313 
Q 1069 891 1326 650 
Q 1584 409 2034 409 
Q 2484 409 2743 651 
Q 3003 894 3003 1313 
Q 3003 1734 2745 1975 
Q 2488 2216 2034 2216 
z
M 1403 2484 
Q 997 2584 770 2862 
Q 544 3141 544 3541 
Q 544 4100 942 4425 
Q 1341 4750 2034 4750 
Q 2731 4750 3128 4425 
Q 3525 4100 3525 3541 
Q 3525 3141 3298 2862 
Q 3072 2584 2669 2484 
Q 3125 2378 3379 2068 
Q 3634 1759 3634 1313 
Q 3634 634 3220 271 
Q 2806 -91 2034 -91 
Q 1263 -91 848 271 
Q 434 634 434 1313 
Q 434 1759 690 2068 
Q 947 2378 1403 2484 
z
M 1172 3481 
Q 1172 3119 1398 2916 
Q 1625 2713 2034 2713 
Q 2441 2713 2670 2916 
Q 2900 3119 2900 3481 
Q 2900 3844 2670 4047 
Q 2441 4250 2034 4250 
Q 1625 4250 1398 4047 
Q 1172 3844 1172 3481 
z
" id="DejaVuSans-38" transform="scale(0.015625)"/>
       </defs>
       <use xlink:href="#DejaVuSans-38"/>
       <use x="63.623047" xlink:href="#DejaVuSans-30"/>
       <use x="127.246094" xlink:href="#DejaVuSans-30"/>
      </g>
     </g>
    </g>
    <g id="text_10">
     <!-- Wavelength (nm) -->
     <g style="fill:#262626;" transform="translate(247.688594 375.536406)scale(0.11 -0.11)">
      <defs>
       <path d="M 213 4666 
L 850 4666 
L 1831 722 
L 2809 4666 
L 3519 4666 
L 4500 722 
L 5478 4666 
L 6119 4666 
L 4947 0 
L 4153 0 
L 3169 4050 
L 2175 0 
L 1381 0 
L 213 4666 
z
" id="DejaVuSans-57" transform="scale(0.015625)"/>
       <path d="M 2194 1759 
Q 1497 1759 1228 1600 
Q 959 1441 959 1056 
Q 959 750 1161 570 
Q 1363 391 1709 391 
Q 2188 391 2477 730 
Q 2766 1069 2766 1631 
L 2766 1759 
L 2194 1759 
z
M 3341 1997 
L 3341 0 
L 2766 0 
L 2766 531 
Q 2569 213 2275 61 
Q 1981 -91 1556 -91 
Q 1019 -91 701 211 
Q 384 513 384 1019 
Q 384 1609 779 1909 
Q 1175 2209 1959 2209 
L 2766 2209 
L 2766 2266 
Q 2766 2663 2505 2880 
Q 2244 3097 1772 3097 
Q 1472 3097 1187 3025 
Q 903 2953 641 2809 
L 641 3341 
Q 956 3463 1253 3523 
Q 1550 3584 1831 3584 
Q 2591 3584 2966 3190 
Q 3341 2797 3341 1997 
z
" id="DejaVuSans-61" transform="scale(0.015625)"/>
       <path d="M 191 3500 
L 800 3500 
L 1894 563 
L 2988 3500 
L 3597 3500 
L 2284 0 
L 1503 0 
L 191 3500 
z
" id="DejaVuSans-76" transform="scale(0.015625)"/>
       <path d="M 3597 1894 
L 3597 1613 
L 953 1613 
Q 991 1019 1311 708 
Q 1631 397 2203 397 
Q 2534 397 2845 478 
Q 3156 559 3463 722 
L 3463 178 
Q 3153 47 2828 -22 
Q 2503 -91 2169 -91 
Q 1331 -91 842 396 
Q 353 884 353 1716 
Q 353 2575 817 3079 
Q 1281 3584 2069 3584 
Q 2775 3584 3186 3129 
Q 3597 2675 3597 1894 
z
M 3022 2063 
Q 3016 2534 2758 2815 
Q 2500 3097 2075 3097 
Q 1594 3097 1305 2825 
Q 1016 2553 972 2059 
L 3022 2063 
z
" id="DejaVuSans-65" transform="scale(0.015625)"/>
       <path d="M 603 4863 
L 1178 4863 
L 1178 0 
L 603 0 
L 603 4863 
z
" id="DejaVuSans-6c" transform="scale(0.015625)"/>
       <path d="M 3513 2113 
L 3513 0 
L 2938 0 
L 2938 2094 
Q 2938 2591 2744 2837 
Q 2550 3084 2163 3084 
Q 1697 3084 1428 2787 
Q 1159 2491 1159 1978 
L 1159 0 
L 581 0 
L 581 3500 
L 1159 3500 
L 1159 2956 
Q 1366 3272 1645 3428 
Q 1925 3584 2291 3584 
Q 2894 3584 3203 3211 
Q 3513 2838 3513 2113 
z
" id="DejaVuSans-6e" transform="scale(0.015625)"/>
       <path d="M 2906 1791 
Q 2906 2416 2648 2759 
Q 2391 3103 1925 3103 
Q 1463 3103 1205 2759 
Q 947 2416 947 1791 
Q 947 1169 1205 825 
Q 1463 481 1925 481 
Q 2391 481 2648 825 
Q 2906 1169 2906 1791 
z
M 3481 434 
Q 3481 -459 3084 -895 
Q 2688 -1331 1869 -1331 
Q 1566 -1331 1297 -1286 
Q 1028 -1241 775 -1147 
L 775 -588 
Q 1028 -725 1275 -790 
Q 1522 -856 1778 -856 
Q 2344 -856 2625 -561 
Q 2906 -266 2906 331 
L 2906 616 
Q 2728 306 2450 153 
Q 2172 0 1784 0 
Q 1141 0 747 490 
Q 353 981 353 1791 
Q 353 2603 747 3093 
Q 1141 3584 1784 3584 
Q 2172 3584 2450 3431 
Q 2728 3278 2906 2969 
L 2906 3500 
L 3481 3500 
L 3481 434 
z
" id="DejaVuSans-67" transform="scale(0.015625)"/>
       <path d="M 1172 4494 
L 1172 3500 
L 2356 3500 
L 2356 3053 
L 1172 3053 
L 1172 1153 
Q 1172 725 1289 603 
Q 1406 481 1766 481 
L 2356 481 
L 2356 0 
L 1766 0 
Q 1100 0 847 248 
Q 594 497 594 1153 
L 594 3053 
L 172 3053 
L 172 3500 
L 594 3500 
L 594 4494 
L 1172 4494 
z
" id="DejaVuSans-74" transform="scale(0.015625)"/>
       <path d="M 3513 2113 
L 3513 0 
L 2938 0 
L 2938 2094 
Q 2938 2591 2744 2837 
Q 2550 3084 2163 3084 
Q 1697 3084 1428 2787 
Q 1159 2491 1159 1978 
L 1159 0 
L 581 0 
L 581 4863 
L 1159 4863 
L 1159 2956 
Q 1366 3272 1645 3428 
Q 1925 3584 2291 3584 
Q 2894 3584 3203 3211 
Q 3513 2838 3513 2113 
z
" id="DejaVuSans-68" transform="scale(0.015625)"/>
       <path id="DejaVuSans-20" transform="scale(0.015625)"/>
       <path d="M 1984 4856 
Q 1566 4138 1362 3434 
Q 1159 2731 1159 2009 
Q 1159 1288 1364 580 
Q 1569 -128 1984 -844 
L 1484 -844 
Q 1016 -109 783 600 
Q 550 1309 550 2009 
Q 550 2706 781 3412 
Q 1013 4119 1484 4856 
L 1984 4856 
z
" id="DejaVuSans-28" transform="scale(0.015625)"/>
       <path d="M 3328 2828 
Q 3544 3216 3844 3400 
Q 4144 3584 4550 3584 
Q 5097 3584 5394 3201 
Q 5691 2819 5691 2113 
L 5691 0 
L 5113 0 
L 5113 2094 
Q 5113 2597 4934 2840 
Q 4756 3084 4391 3084 
Q 3944 3084 3684 2787 
Q 3425 2491 3425 1978 
L 3425 0 
L 2847 0 
L 2847 2094 
Q 2847 2600 2669 2842 
Q 2491 3084 2119 3084 
Q 1678 3084 1418 2786 
Q 1159 2488 1159 1978 
L 1159 0 
L 581 0 
L 581 3500 
L 1159 3500 
L 1159 2956 
Q 1356 3278 1631 3431 
Q 1906 3584 2284 3584 
Q 2666 3584 2933 3390 
Q 3200 3197 3328 2828 
z
" id="DejaVuSans-6d" transform="scale(0.015625)"/>
       <path d="M 513 4856 
L 1013 4856 
Q 1481 4119 1714 3412 
Q 1947 2706 1947 2009 
Q 1947 1309 1714 600 
Q 1481 -109 1013 -844 
L 513 -844 
Q 928 -128 1133 580 
Q 1338 1288 1338 2009 
Q 1338 2731 1133 3434 
Q 928 4138 513 4856 
z
" id="DejaVuSans-29" transform="scale(0.015625)"/>
      </defs>
      <use xlink:href="#DejaVuSans-57"/>
      <use x="92.501953" xlink:href="#DejaVuSans-61"/>
      <use x="153.78125" xlink:href="#DejaVuSans-76"/>
      <use x="212.960938" xlink:href="#DejaVuSans-65"/>
      <use x="274.484375" xlink:href="#DejaVuSans-6c"/>
      <use x="302.267578" xlink:href="#DejaVuSans-65"/>
      <use x="363.791016" xlink:href="#DejaVuSans-6e"/>
      <use x="427.169922" xlink:href="#DejaVuSans-67"/>
      <use x="490.646484" xlink:href="#DejaVuSans-74"/>
      <use x="529.855469" xlink:href="#DejaVuSans-68"/>
      <use x="593.234375" xlink:href="#DejaVuSans-20"/>
      <use x="625.021484" xlink:href="#DejaVuSans-28"/>
      <use x="664.035156" xlink:href="#DejaVuSans-6e"/>
      <use x="727.414062" xlink:href="#DejaVuSans-6d"/>
      <use x="824.826172" xlink:href="#DejaVuSans-29"/>
     </g>
    </g>
   </g>
   <g id="matplotlib.axis_2">
    <g id="ytick_1">
     <g id="line2d_19">
      <path clip-path="url(#p422a10c4b2)" d="M 72 335.249918 
L 518.4 335.249918 
" style="fill:none;stroke:#ffffff;stroke-linecap:round;"/>
     </g>
     <g id="line2d_20"/>
     <g id="text_11">
      <!-- 0.000 -->
      <g style="fill:#262626;" transform="translate(36.371875 339.049137)scale(0.1 -0.1)">
       <defs>
        <path d="M 684 794 
L 1344 794 
L 1344 0 
L 684 0 
L 684 794 
z
" id="DejaVuSans-2e" transform="scale(0.015625)"/>
       </defs>
       <use xlink:href="#DejaVuSans-30"/>
       <use x="63.623047" xlink:href="#DejaVuSans-2e"/>
       <use x="95.410156" xlink:href="#DejaVuSans-30"/>
       <use x="159.033203" xlink:href="#DejaVuSans-30"/>
       <use x="222.65625" xlink:href="#DejaVuSans-30"/>
      </g>
     </g>
    </g>
    <g id="ytick_2">
     <g id="line2d_21">
      <path clip-path="url(#p422a10c4b2)" d="M 72 300.187045 
L 518.4 300.187045 
" style="fill:none;stroke:#ffffff;stroke-linecap:round;"/>
     </g>
     <g id="line2d_22"/>
     <g id="text_12">
      <!-- 0.025 -->
      <g style="fill:#262626;" transform="translate(36.371875 303.986264)scale(0.1 -0.1)">
       <defs>
        <path d="M 1228 531 
L 3431 531 
L 3431 0 
L 469 0 
L 469 531 
Q 828 903 1448 1529 
Q 2069 2156 2228 2338 
Q 2531 2678 2651 2914 
Q 2772 3150 2772 3378 
Q 2772 3750 2511 3984 
Q 2250 4219 1831 4219 
Q 1534 4219 1204 4116 
Q 875 4013 500 3803 
L 500 4441 
Q 881 4594 1212 4672 
Q 1544 4750 1819 4750 
Q 2544 4750 2975 4387 
Q 3406 4025 3406 3419 
Q 3406 3131 3298 2873 
Q 3191 2616 2906 2266 
Q 2828 2175 2409 1742 
Q 1991 1309 1228 531 
z
" id="DejaVuSans-32" transform="scale(0.015625)"/>
       </defs>
       <use xlink:href="#DejaVuSans-30"/>
       <use x="63.623047" xlink:href="#DejaVuSans-2e"/>
       <use x="95.410156" xlink:href="#DejaVuSans-30"/>
       <use x="159.033203" xlink:href="#DejaVuSans-32"/>
       <use x="222.65625" xlink:href="#DejaVuSans-35"/>
      </g>
     </g>
    </g>
    <g id="ytick_3">
     <g id="line2d_23">
      <path clip-path="url(#p422a10c4b2)" d="M 72 265.124171 
L 518.4 265.124171 
" style="fill:none;stroke:#ffffff;stroke-linecap:round;"/>
     </g>
     <g id="line2d_24"/>
     <g id="text_13">
      <!-- 0.050 -->
      <g style="fill:#262626;" transform="translate(36.371875 268.92339)scale(0.1 -0.1)">
       <use xlink:href="#DejaVuSans-30"/>
       <use x="63.623047" xlink:href="#DejaVuSans-2e"/>
       <use x="95.410156" xlink:href="#DejaVuSans-30"/>
       <use x="159.033203" xlink:href="#DejaVuSans-35"/>
       <use x="222.65625" xlink:href="#DejaVuSans-30"/>
      </g>
     </g>
    </g>
    <g id="ytick_4">
     <g id="line2d_25">
      <path clip-path="url(#p422a10c4b2)" d="M 72 230.061298 
L 518.4 230.061298 
" style="fill:none;stroke:#ffffff;stroke-linecap:round;"/>
     </g>
     <g id="line2d_26"/>
     <g id="text_14">
      <!-- 0.075 -->
      <g style="fill:#262626;" transform="translate(36.371875 233.860517)scale(0.1 -0.1)">
       <use xlink:href="#DejaVuSans-30"/>
       <use x="63.623047" xlink:href="#DejaVuSans-2e"/>
       <use x="95.410156" xlink:href="#DejaVuSans-30"/>
       <use x="159.033203" xlink:href="#DejaVuSans-37"/>
       <use x="222.65625" xlink:href="#DejaVuSans-35"/>
      </g>
     </g>
    </g>
    <g id="ytick_5">
     <g id="line2d_27">
      <path clip-path="url(#p422a10c4b2)" d="M 72 194.998424 
L 518.4 194.998424 
" style="fill:none;stroke:#ffffff;stroke-linecap:round;"/>
     </g>
     <g id="line2d_28"/>
     <g id="text_15">
      <!-- 0.100 -->
      <g style="fill:#262626;" transform="translate(36.371875 198.797643)scale(0.1 -0.1)">
       <defs>
        <path d="M 794 531 
L 1825 531 
L 1825 4091 
L 703 3866 
L 703 4441 
L 1819 4666 
L 2450 4666 
L 2450 531 
L 3481 531 
L 3481 0 
L 794 0 
L 794 531 
z
" id="DejaVuSans-31" transform="scale(0.015625)"/>
       </defs>
       <use xlink:href="#DejaVuSans-30"/>
       <use x="63.623047" xlink:href="#DejaVuSans-2e"/>
       <use x="95.410156" xlink:href="#DejaVuSans-31"/>
       <use x="159.033203" xlink:href="#DejaVuSans-30"/>
       <use x="222.65625" xlink:href="#DejaVuSans-30"/>
      </g>
     </g>
    </g>
    <g id="ytick_6">
     <g id="line2d_29">
      <path clip-path="url(#p422a10c4b2)" d="M 72 159.935551 
L 518.4 159.935551 
" style="fill:none;stroke:#ffffff;stroke-linecap:round;"/>
     </g>
     <g id="line2d_30"/>
     <g id="text_16">
      <!-- 0.125 -->
      <g style="fill:#262626;" transform="translate(36.371875 163.73477)scale(0.1 -0.1)">
       <use xlink:href="#DejaVuSans-30"/>
       <use x="63.623047" xlink:href="#DejaVuSans-2e"/>
       <use x="95.410156" xlink:href="#DejaVuSans-31"/>
       <use x="159.033203" xlink:href="#DejaVuSans-32"/>
       <use x="222.65625" xlink:href="#DejaVuSans-35"/>
      </g>
     </g>
    </g>
    <g id="ytick_7">
     <g id="line2d_31">
      <path clip-path="url(#p422a10c4b2)" d="M 72 124.872677 
L 518.4 124.872677 
" style="fill:none;stroke:#ffffff;stroke-linecap:round;"/>
     </g>
     <g id="line2d_32"/>
     <g id="text_17">
      <!-- 0.150 -->
      <g style="fill:#262626;" transform="translate(36.371875 128.671896)scale(0.1 -0.1)">
       <use xlink:href="#DejaVuSans-30"/>
       <use x="63.623047" xlink:href="#DejaVuSans-2e"/>
       <use x="95.410156" xlink:href="#DejaVuSans-31"/>
       <use x="159.033203" xlink:href="#DejaVuSans-35"/>
       <use x="222.65625" xlink:href="#DejaVuSans-30"/>
      </g>
     </g>
    </g>
    <g id="ytick_8">
     <g id="line2d_33">
      <path clip-path="url(#p422a10c4b2)" d="M 72 89.809804 
L 518.4 89.809804 
" style="fill:none;stroke:#ffffff;stroke-linecap:round;"/>
     </g>
     <g id="line2d_34"/>
     <g id="text_18">
      <!-- 0.175 -->
      <g style="fill:#262626;" transform="translate(36.371875 93.609022)scale(0.1 -0.1)">
       <use xlink:href="#DejaVuSans-30"/>
       <use x="63.623047" xlink:href="#DejaVuSans-2e"/>
       <use x="95.410156" xlink:href="#DejaVuSans-31"/>
       <use x="159.033203" xlink:href="#DejaVuSans-37"/>
       <use x="222.65625" xlink:href="#DejaVuSans-35"/>
      </g>
     </g>
    </g>
    <g id="ytick_9">
     <g id="line2d_35">
      <path clip-path="url(#p422a10c4b2)" d="M 72 54.74693 
L 518.4 54.74693 
" style="fill:none;stroke:#ffffff;stroke-linecap:round;"/>
     </g>
     <g id="line2d_36"/>
     <g id="text_19">
      <!-- 0.200 -->
      <g style="fill:#262626;" transform="translate(36.371875 58.546149)scale(0.1 -0.1)">
       <use xlink:href="#DejaVuSans-30"/>
       <use x="63.623047" xlink:href="#DejaVuSans-2e"/>
       <use x="95.410156" xlink:href="#DejaVuSans-32"/>
       <use x="159.033203" xlink:href="#DejaVuSans-30"/>
       <use x="222.65625" xlink:href="#DejaVuSans-30"/>
      </g>
     </g>
    </g>
    <g id="text_20">
     <!-- Counts/s/nm -->
     <g style="fill:#262626;" transform="translate(30.084219 231.622187)rotate(-90)scale(0.11 -0.11)">
      <defs>
       <path d="M 4122 4306 
L 4122 3641 
Q 3803 3938 3442 4084 
Q 3081 4231 2675 4231 
Q 1875 4231 1450 3742 
Q 1025 3253 1025 2328 
Q 1025 1406 1450 917 
Q 1875 428 2675 428 
Q 3081 428 3442 575 
Q 3803 722 4122 1019 
L 4122 359 
Q 3791 134 3420 21 
Q 3050 -91 2638 -91 
Q 1578 -91 968 557 
Q 359 1206 359 2328 
Q 359 3453 968 4101 
Q 1578 4750 2638 4750 
Q 3056 4750 3426 4639 
Q 3797 4528 4122 4306 
z
" id="DejaVuSans-43" transform="scale(0.015625)"/>
       <path d="M 1959 3097 
Q 1497 3097 1228 2736 
Q 959 2375 959 1747 
Q 959 1119 1226 758 
Q 1494 397 1959 397 
Q 2419 397 2687 759 
Q 2956 1122 2956 1747 
Q 2956 2369 2687 2733 
Q 2419 3097 1959 3097 
z
M 1959 3584 
Q 2709 3584 3137 3096 
Q 3566 2609 3566 1747 
Q 3566 888 3137 398 
Q 2709 -91 1959 -91 
Q 1206 -91 779 398 
Q 353 888 353 1747 
Q 353 2609 779 3096 
Q 1206 3584 1959 3584 
z
" id="DejaVuSans-6f" transform="scale(0.015625)"/>
       <path d="M 544 1381 
L 544 3500 
L 1119 3500 
L 1119 1403 
Q 1119 906 1312 657 
Q 1506 409 1894 409 
Q 2359 409 2629 706 
Q 2900 1003 2900 1516 
L 2900 3500 
L 3475 3500 
L 3475 0 
L 2900 0 
L 2900 538 
Q 2691 219 2414 64 
Q 2138 -91 1772 -91 
Q 1169 -91 856 284 
Q 544 659 544 1381 
z
M 1991 3584 
L 1991 3584 
z
" id="DejaVuSans-75" transform="scale(0.015625)"/>
       <path d="M 2834 3397 
L 2834 2853 
Q 2591 2978 2328 3040 
Q 2066 3103 1784 3103 
Q 1356 3103 1142 2972 
Q 928 2841 928 2578 
Q 928 2378 1081 2264 
Q 1234 2150 1697 2047 
L 1894 2003 
Q 2506 1872 2764 1633 
Q 3022 1394 3022 966 
Q 3022 478 2636 193 
Q 2250 -91 1575 -91 
Q 1294 -91 989 -36 
Q 684 19 347 128 
L 347 722 
Q 666 556 975 473 
Q 1284 391 1588 391 
Q 1994 391 2212 530 
Q 2431 669 2431 922 
Q 2431 1156 2273 1281 
Q 2116 1406 1581 1522 
L 1381 1569 
Q 847 1681 609 1914 
Q 372 2147 372 2553 
Q 372 3047 722 3315 
Q 1072 3584 1716 3584 
Q 2034 3584 2315 3537 
Q 2597 3491 2834 3397 
z
" id="DejaVuSans-73" transform="scale(0.015625)"/>
       <path d="M 1625 4666 
L 2156 4666 
L 531 -594 
L 0 -594 
L 1625 4666 
z
" id="DejaVuSans-2f" transform="scale(0.015625)"/>
      </defs>
      <use xlink:href="#DejaVuSans-43"/>
      <use x="69.824219" xlink:href="#DejaVuSans-6f"/>
      <use x="131.005859" xlink:href="#DejaVuSans-75"/>
      <use x="194.384766" xlink:href="#DejaVuSans-6e"/>
      <use x="257.763672" xlink:href="#DejaVuSans-74"/>
      <use x="296.972656" xlink:href="#DejaVuSans-73"/>
      <use x="349.072266" xlink:href="#DejaVuSans-2f"/>
      <use x="382.763672" xlink:href="#DejaVuSans-73"/>
      <use x="434.863281" xlink:href="#DejaVuSans-2f"/>
      <use x="468.554688" xlink:href="#DejaVuSans-6e"/>
      <use x="531.933594" xlink:href="#DejaVuSans-6d"/>
     </g>
    </g>
   </g>
   <g id="line2d_37">
    <path clip-path="url(#p422a10c4b2)" d="M 92.290909 332.45711 
L 93.305455 332.148253 
L 94.32 332.113925 
L 95.334545 332.337244 
L 96.349091 332.91 
L 97.363636 332.839168 
L 98.378182 332.90889 
L 100.407273 332.505579 
L 101.421818 332.599355 
L 102.436364 332.472036 
L 105.48 332.41589 
L 106.494545 332.35093 
L 108.523636 332.511261 
L 109.538182 332.631662 
L 110.552727 332.450141 
L 111.567273 331.947031 
L 112.581818 331.67859 
L 113.596364 331.535984 
L 114.610909 331.048621 
L 117.654545 328.785853 
L 118.669091 327.977164 
L 119.683636 326.776337 
L 120.698182 324.983461 
L 122.727273 320.122413 
L 123.741818 317.194744 
L 125.770909 308.628394 
L 126.785455 303.444841 
L 128.814545 289.264216 
L 129.829091 280.425165 
L 130.843636 268.340445 
L 132.872727 247.345093 
L 135.916364 200.697933 
L 136.930909 185.200056 
L 137.945455 174.817666 
L 138.96 161.040186 
L 139.974545 153.766378 
L 140.989091 155.338276 
L 142.003636 153.242249 
L 143.018182 158.246138 
L 144.032727 161.127461 
L 145.047273 167.556951 
L 146.061818 176.492433 
L 147.076364 184.101468 
L 148.090909 190.043427 
L 149.105455 195.284466 
L 150.12 197.04566 
L 151.134545 196.891553 
L 152.149091 194.682976 
L 153.163636 193.487173 
L 154.178182 185.146022 
L 155.192727 174.492229 
L 156.207273 167.828989 
L 157.221818 163.244298 
L 158.236364 156.567743 
L 159.250909 148.156868 
L 160.265455 145.726115 
L 161.28 145.366486 
L 162.294545 145.668121 
L 163.309091 148.24439 
L 165.338182 160.108857 
L 166.352727 165.145144 
L 167.367273 174.483843 
L 168.381818 180.18606 
L 169.396364 182.284407 
L 171.425455 189.593813 
L 172.44 190.988222 
L 173.454545 189.136583 
L 174.469091 186.608518 
L 175.483636 187.062724 
L 176.498182 189.47901 
L 177.512727 189.239573 
L 178.527273 187.878988 
L 179.541818 188.367176 
L 180.556364 189.970672 
L 181.570909 192.896027 
L 182.585455 195.137423 
L 183.6 196.531373 
L 184.614545 200.639088 
L 185.629091 205.567513 
L 186.643636 209.356213 
L 187.658182 211.408441 
L 188.672727 215.777411 
L 189.687273 219.27849 
L 190.701818 222.24257 
L 191.716364 226.449347 
L 193.745455 229.963709 
L 194.76 233.761853 
L 195.774545 236.572404 
L 196.789091 238.259464 
L 197.803636 237.882881 
L 198.818182 238.228243 
L 199.832727 238.331347 
L 200.847273 237.237921 
L 202.876364 233.497171 
L 203.890909 230.993395 
L 205.92 224.117276 
L 207.949091 215.309874 
L 209.978182 206.019552 
L 217.08 172.904195 
L 220.123636 160.31645 
L 221.138182 158.28581 
L 223.167273 151.778361 
L 224.181818 149.734625 
L 225.196364 149.16313 
L 226.210909 148.205309 
L 227.225455 146.673295 
L 228.24 147.007905 
L 230.269091 148.960511 
L 231.283636 150.248312 
L 233.312727 155.364198 
L 234.327273 156.933114 
L 235.341818 159.976742 
L 237.370909 167.171782 
L 239.4 175.015309 
L 241.429091 183.054703 
L 242.443636 186.279715 
L 243.458182 189.883164 
L 244.472727 193.952073 
L 246.501818 199.902348 
L 248.530909 206.665684 
L 250.56 212.381395 
L 251.574545 214.528792 
L 252.589091 216.166641 
L 253.603636 218.760145 
L 254.618182 220.683277 
L 256.647273 222.990884 
L 257.661818 224.802621 
L 258.676364 226.122677 
L 259.690909 226.717896 
L 260.705455 226.616046 
L 261.72 226.910548 
L 262.734545 227.366061 
L 263.749091 227.08194 
L 265.778182 226.114793 
L 267.807273 224.412761 
L 269.836364 221.964646 
L 270.850909 220.573244 
L 271.865455 218.962656 
L 272.88 217.093656 
L 276.938182 208.658446 
L 278.967273 204.614799 
L 280.996364 200.474571 
L 282.010909 198.952934 
L 284.04 194.88842 
L 286.069091 191.548115 
L 288.098182 189.167748 
L 289.112727 187.589222 
L 290.127273 186.468173 
L 291.141818 185.60967 
L 292.156364 184.32825 
L 293.170909 183.289684 
L 294.185455 182.725578 
L 296.214545 182.033966 
L 297.229091 181.655691 
L 298.243636 181.069656 
L 299.258182 180.225621 
L 300.272727 180.10418 
L 302.301818 180.814024 
L 303.316364 180.097426 
L 304.330909 179.802542 
L 305.345455 180.144646 
L 306.36 180.083778 
L 307.374545 180.322048 
L 308.389091 180.341753 
L 309.403636 180.526268 
L 310.418182 181.130518 
L 311.432727 182.100168 
L 312.447273 182.16709 
L 313.461818 182.431848 
L 314.476364 183.121027 
L 318.534545 184.541212 
L 322.592727 185.453343 
L 323.607273 186.130603 
L 324.621818 186.23431 
L 326.650909 185.880704 
L 327.665455 185.514205 
L 328.68 184.756122 
L 329.694545 183.679132 
L 330.709091 183.053267 
L 331.723636 181.590753 
L 332.738182 179.838371 
L 334.767273 175.10383 
L 336.796364 168.741351 
L 337.810909 164.675591 
L 339.84 154.803141 
L 341.869091 142.146533 
L 343.898182 125.174791 
L 345.927273 105.755783 
L 347.956364 85.457349 
L 348.970909 76.310151 
L 349.985455 68.559748 
L 351 63.09049 
L 352.014545 62.139375 
L 353.029091 64.846741 
L 354.043636 71.050617 
L 355.058182 80.117063 
L 357.087273 104.437886 
L 358.101818 116.410688 
L 359.116364 126.296823 
L 360.130909 134.361538 
L 361.145455 140.060492 
L 362.16 143.60993 
L 363.174545 144.97555 
L 364.189091 144.990308 
L 365.203636 143.511519 
L 366.218182 140.207044 
L 367.232727 135.158092 
L 369.261818 123.119661 
L 371.290909 110.791827 
L 372.305455 105.595321 
L 373.32 102.612668 
L 374.334545 102.439449 
L 375.349091 106.195788 
L 376.363636 113.528415 
L 377.378182 124.653653 
L 378.392727 140.152573 
L 382.450909 211.191214 
L 383.465455 226.432004 
L 384.48 238.736486 
L 385.494545 248.86652 
L 386.509091 257.811823 
L 387.523636 265.556449 
L 388.538182 272.039957 
L 389.552727 277.590834 
L 390.567273 282.209696 
L 391.581818 286.18903 
L 392.596364 289.714095 
L 394.625455 295.42599 
L 396.654545 299.581798 
L 398.683636 303.020119 
L 399.698182 304.271029 
L 402.741818 307.542375 
L 405.785455 309.994586 
L 408.829091 312.055264 
L 412.887273 313.934831 
L 414.916364 314.462174 
L 416.945455 315.009587 
L 417.96 315.084855 
L 418.974545 315.347364 
L 419.989091 315.424235 
L 422.018182 315.206972 
L 424.047273 315.403482 
L 425.061818 315.326224 
L 427.090909 315.740035 
L 431.149091 315.762623 
L 433.178182 315.699245 
L 434.192727 315.813984 
L 435.207273 315.781059 
L 436.221818 315.891287 
L 437.236364 315.824331 
L 438.250909 315.933238 
L 439.265455 316.191131 
L 440.28 316.282099 
L 441.294545 316.499169 
L 442.309091 316.423132 
L 443.323636 316.86795 
L 444.338182 317.029582 
L 445.352727 317.009787 
L 447.381818 317.423565 
L 449.410909 317.789036 
L 450.425455 317.94291 
L 451.44 318.311141 
L 453.469091 318.71626 
L 454.483636 319.136617 
L 459.556364 320.079544 
L 460.570909 320.08558 
L 461.585455 320.403827 
L 464.629091 320.983094 
L 466.658182 321.659989 
L 467.672727 321.768193 
L 473.76 323.240013 
L 475.789091 323.858463 
L 476.803636 323.948496 
L 478.832727 324.621089 
L 479.847273 324.616023 
L 480.861818 324.868901 
L 484.92 325.163049 
L 486.949091 325.6844 
L 492.021818 326.358247 
L 493.036364 326.588486 
L 495.065455 327.24465 
L 497.094545 327.872293 
L 498.109091 328.038016 
L 498.109091 328.038016 
" style="fill:none;stroke:#4c72b0;stroke-linecap:round;stroke-width:1.75;"/>
   </g>
   <g id="line2d_38">
    <path clip-path="url(#p422a10c4b2)" d="M 92.290909 332.37862 
L 93.305455 332.170388 
L 94.32 332.115648 
L 95.334545 332.410695 
L 96.349091 332.519812 
L 97.363636 332.385525 
L 99.392727 332.473352 
L 100.407273 332.423841 
L 101.421818 332.07763 
L 102.436364 332.137833 
L 103.450909 332.362159 
L 104.465455 332.366214 
L 105.48 332.165946 
L 106.494545 332.135697 
L 108.523636 332.44672 
L 109.538182 332.459028 
L 111.567273 331.620349 
L 113.596364 331.649171 
L 116.64 329.754971 
L 118.669091 328.098484 
L 120.698182 325.048061 
L 122.727273 320.311259 
L 123.741818 317.407588 
L 126.785455 304.148684 
L 128.814545 290.313005 
L 129.829091 281.736712 
L 130.843636 270.335911 
L 132.872727 250.098005 
L 134.901818 221.662411 
L 136.930909 190.216983 
L 137.945455 179.670673 
L 138.96 165.935522 
L 139.974545 158.128334 
L 140.989091 158.713177 
L 142.003636 155.678392 
L 143.018182 159.884222 
L 144.032727 161.94104 
L 145.047273 167.6586 
L 147.076364 182.906406 
L 148.090909 188.61774 
L 149.105455 193.600755 
L 150.12 195.424961 
L 151.134545 195.042849 
L 152.149091 192.911552 
L 153.163636 191.820203 
L 154.178182 183.352279 
L 155.192727 172.461234 
L 156.207273 165.735371 
L 157.221818 160.996326 
L 158.236364 154.408859 
L 159.250909 145.728007 
L 160.265455 143.285706 
L 161.28 143.043246 
L 162.294545 143.443733 
L 163.309091 146.095154 
L 165.338182 157.884515 
L 166.352727 162.787507 
L 167.367273 172.186259 
L 168.381818 177.553536 
L 169.396364 179.382472 
L 171.425455 186.539313 
L 172.44 187.873463 
L 173.454545 185.560488 
L 174.469091 182.797637 
L 175.483636 183.207753 
L 176.498182 185.464548 
L 177.512727 184.959847 
L 178.527273 183.473825 
L 179.541818 183.926831 
L 180.556364 185.774585 
L 181.570909 188.993643 
L 182.585455 191.577064 
L 183.6 193.589824 
L 184.614545 198.187658 
L 185.629091 203.752363 
L 186.643636 208.274164 
L 187.658182 211.147372 
L 188.672727 216.196 
L 189.687273 220.481771 
L 190.701818 224.262999 
L 191.716364 229.265898 
L 192.730909 231.858913 
L 193.745455 234.129801 
L 194.76 238.563254 
L 195.774545 241.883425 
L 196.789091 243.799754 
L 197.803636 243.888024 
L 199.832727 244.655926 
L 200.847273 243.542111 
L 202.876364 239.566265 
L 203.890909 236.873239 
L 205.92 229.195345 
L 207.949091 219.24228 
L 209.978182 208.491044 
L 216.065455 174.88519 
L 218.094545 165.361972 
L 220.123636 156.95107 
L 221.138182 155.141299 
L 223.167273 149.456403 
L 224.181818 147.936783 
L 225.196364 147.917514 
L 226.210909 147.474416 
L 227.225455 146.427179 
L 228.24 147.210875 
L 229.254545 148.880718 
L 230.269091 150.162897 
L 231.283636 151.843599 
L 232.298182 154.854634 
L 233.312727 157.470236 
L 234.327273 159.051461 
L 236.356364 165.188198 
L 244.472727 193.985602 
L 246.501818 199.971541 
L 248.530909 206.770061 
L 250.56 212.566963 
L 251.574545 214.672074 
L 252.589091 216.330368 
L 253.603636 218.973739 
L 254.618182 220.926871 
L 256.647273 222.882531 
L 257.661818 224.619542 
L 258.676364 225.796593 
L 259.690909 226.217631 
L 260.705455 225.885164 
L 262.734545 226.55991 
L 263.749091 226.131274 
L 265.778182 224.947422 
L 266.792727 224.110061 
L 267.807273 223.048973 
L 269.836364 220.428499 
L 270.850909 218.964235 
L 272.88 215.098824 
L 276.938182 206.408941 
L 277.952727 204.563864 
L 279.981818 200.234566 
L 280.996364 198.284176 
L 282.010909 196.835931 
L 285.054545 190.993122 
L 286.069091 189.219302 
L 288.098182 186.751268 
L 289.112727 185.169392 
L 290.127273 184.061995 
L 291.141818 183.347694 
L 292.156364 182.070705 
L 293.170909 181.083951 
L 294.185455 180.383328 
L 296.214545 179.783397 
L 298.243636 178.80864 
L 299.258182 177.949154 
L 300.272727 178.079021 
L 302.301818 178.867892 
L 303.316364 178.167377 
L 304.330909 178.000602 
L 305.345455 178.491036 
L 306.36 178.467613 
L 307.374545 178.841426 
L 308.389091 178.814817 
L 309.403636 178.931659 
L 310.418182 179.607675 
L 311.432727 180.475727 
L 312.447273 180.671818 
L 313.461818 180.984278 
L 314.476364 181.836992 
L 315.490909 182.313492 
L 316.505455 182.58226 
L 317.52 183.04832 
L 319.549091 183.590467 
L 321.578182 184.216042 
L 322.592727 184.452527 
L 323.607273 185.236332 
L 324.621818 185.53179 
L 326.650909 185.402666 
L 327.665455 185.090423 
L 328.68 184.524381 
L 329.694545 183.596389 
L 330.709091 183.0368 
L 331.723636 181.73627 
L 332.738182 180.143775 
L 333.752727 178.092065 
L 334.767273 175.573656 
L 336.796364 169.484735 
L 337.810909 165.481656 
L 338.825455 160.993263 
L 340.854545 150.111073 
L 341.869091 143.450843 
L 342.883636 135.620346 
L 344.912727 117.452994 
L 349.985455 69.346915 
L 351 62.99939 
L 352.014545 61.11 
L 353.029091 62.576009 
L 354.043636 67.69197 
L 355.058182 76.07109 
L 356.072727 87.112135 
L 358.101818 111.392247 
L 359.116364 121.347923 
L 360.130909 129.795341 
L 361.145455 135.825323 
L 362.16 139.614296 
L 363.174545 141.083965 
L 364.189091 141.02907 
L 365.203636 139.636286 
L 366.218182 136.122501 
L 367.232727 130.788062 
L 371.290909 106.408199 
L 372.305455 101.594357 
L 373.32 98.798172 
L 374.334545 99.235839 
L 375.349091 103.441626 
L 376.363636 111.331806 
L 377.378182 123.038514 
L 378.392727 138.744839 
L 382.450909 210.784073 
L 383.465455 226.222328 
L 384.48 238.636384 
L 385.494545 248.831501 
L 386.509091 257.60532 
L 387.523636 265.342786 
L 388.538182 271.829494 
L 389.552727 277.244078 
L 390.567273 281.914095 
L 392.596364 289.511847 
L 393.610909 292.54638 
L 394.625455 295.119799 
L 396.654545 299.379471 
L 397.669091 301.187024 
L 398.683636 302.753799 
L 400.712727 305.235832 
L 401.727273 306.161236 
L 403.756364 308.227234 
L 406.8 310.738208 
L 408.829091 312.015993 
L 409.843636 312.331749 
L 410.858182 312.849305 
L 413.901818 313.847918 
L 417.96 314.687566 
L 419.989091 315.007834 
L 421.003636 315.055076 
L 422.018182 315.241272 
L 424.047273 315.305227 
L 425.061818 315.300153 
L 426.076364 315.448873 
L 429.12 315.21305 
L 431.149091 315.3279 
L 432.163636 315.168427 
L 434.192727 315.32231 
L 439.265455 315.763089 
L 440.28 315.897315 
L 441.294545 315.896466 
L 442.309091 315.780858 
L 444.338182 316.274514 
L 446.367273 316.4169 
L 447.381818 316.807378 
L 449.410909 317.097795 
L 451.44 317.508628 
L 453.469091 317.654908 
L 455.498182 318.312445 
L 456.512727 318.454161 
L 459.556364 319.491435 
L 460.570909 319.56514 
L 462.6 320.016327 
L 463.614545 320.086789 
L 464.629091 320.294766 
L 466.658182 320.854032 
L 471.730909 321.96266 
L 472.745455 322.037502 
L 477.818182 323.593563 
L 478.832727 323.888056 
L 482.890909 324.582201 
L 483.905455 324.902211 
L 485.934545 325.255524 
L 487.963636 325.574525 
L 489.992727 325.525569 
L 491.007273 325.704669 
L 492.021818 326.069711 
L 493.036364 326.206961 
L 494.050909 326.629629 
L 495.065455 327.181099 
L 496.08 327.273814 
L 497.094545 327.541169 
L 498.109091 327.5562 
L 498.109091 327.5562 
" style="fill:none;stroke:#55a868;stroke-linecap:round;stroke-width:1.75;"/>
   </g>
   <g id="patch_3">
    <path d="M 72 346.5 
L 72 47.52 
" style="fill:none;"/>
   </g>
   <g id="patch_4">
    <path d="M 518.4 346.5 
L 518.4 47.52 
" style="fill:none;"/>
   </g>
   <g id="patch_5">
    <path d="M 72 346.5 
L 518.4 346.5 
" style="fill:none;"/>
   </g>
   <g id="patch_6">
    <path d="M 72 47.52 
L 518.4 47.52 
" style="fill:none;"/>
   </g>
   <g id="text_21">
    <!-- Background spectra -->
    <g style="fill:#262626;" transform="translate(235.079062 41.52)scale(0.12 -0.12)">
     <defs>
      <path d="M 1259 2228 
L 1259 519 
L 2272 519 
Q 2781 519 3026 730 
Q 3272 941 3272 1375 
Q 3272 1813 3026 2020 
Q 2781 2228 2272 2228 
L 1259 2228 
z
M 1259 4147 
L 1259 2741 
L 2194 2741 
Q 2656 2741 2882 2914 
Q 3109 3088 3109 3444 
Q 3109 3797 2882 3972 
Q 2656 4147 2194 4147 
L 1259 4147 
z
M 628 4666 
L 2241 4666 
Q 2963 4666 3353 4366 
Q 3744 4066 3744 3513 
Q 3744 3084 3544 2831 
Q 3344 2578 2956 2516 
Q 3422 2416 3680 2098 
Q 3938 1781 3938 1306 
Q 3938 681 3513 340 
Q 3088 0 2303 0 
L 628 0 
L 628 4666 
z
" id="DejaVuSans-42" transform="scale(0.015625)"/>
      <path d="M 3122 3366 
L 3122 2828 
Q 2878 2963 2633 3030 
Q 2388 3097 2138 3097 
Q 1578 3097 1268 2742 
Q 959 2388 959 1747 
Q 959 1106 1268 751 
Q 1578 397 2138 397 
Q 2388 397 2633 464 
Q 2878 531 3122 666 
L 3122 134 
Q 2881 22 2623 -34 
Q 2366 -91 2075 -91 
Q 1284 -91 818 406 
Q 353 903 353 1747 
Q 353 2603 823 3093 
Q 1294 3584 2113 3584 
Q 2378 3584 2631 3529 
Q 2884 3475 3122 3366 
z
" id="DejaVuSans-63" transform="scale(0.015625)"/>
      <path d="M 581 4863 
L 1159 4863 
L 1159 1991 
L 2875 3500 
L 3609 3500 
L 1753 1863 
L 3688 0 
L 2938 0 
L 1159 1709 
L 1159 0 
L 581 0 
L 581 4863 
z
" id="DejaVuSans-6b" transform="scale(0.015625)"/>
      <path d="M 2631 2963 
Q 2534 3019 2420 3045 
Q 2306 3072 2169 3072 
Q 1681 3072 1420 2755 
Q 1159 2438 1159 1844 
L 1159 0 
L 581 0 
L 581 3500 
L 1159 3500 
L 1159 2956 
Q 1341 3275 1631 3429 
Q 1922 3584 2338 3584 
Q 2397 3584 2469 3576 
Q 2541 3569 2628 3553 
L 2631 2963 
z
" id="DejaVuSans-72" transform="scale(0.015625)"/>
      <path d="M 2906 2969 
L 2906 4863 
L 3481 4863 
L 3481 0 
L 2906 0 
L 2906 525 
Q 2725 213 2448 61 
Q 2172 -91 1784 -91 
Q 1150 -91 751 415 
Q 353 922 353 1747 
Q 353 2572 751 3078 
Q 1150 3584 1784 3584 
Q 2172 3584 2448 3432 
Q 2725 3281 2906 2969 
z
M 947 1747 
Q 947 1113 1208 752 
Q 1469 391 1925 391 
Q 2381 391 2643 752 
Q 2906 1113 2906 1747 
Q 2906 2381 2643 2742 
Q 2381 3103 1925 3103 
Q 1469 3103 1208 2742 
Q 947 2381 947 1747 
z
" id="DejaVuSans-64" transform="scale(0.015625)"/>
      <path d="M 1159 525 
L 1159 -1331 
L 581 -1331 
L 581 3500 
L 1159 3500 
L 1159 2969 
Q 1341 3281 1617 3432 
Q 1894 3584 2278 3584 
Q 2916 3584 3314 3078 
Q 3713 2572 3713 1747 
Q 3713 922 3314 415 
Q 2916 -91 2278 -91 
Q 1894 -91 1617 61 
Q 1341 213 1159 525 
z
M 3116 1747 
Q 3116 2381 2855 2742 
Q 2594 3103 2138 3103 
Q 1681 3103 1420 2742 
Q 1159 2381 1159 1747 
Q 1159 1113 1420 752 
Q 1681 391 2138 391 
Q 2594 391 2855 752 
Q 3116 1113 3116 1747 
z
" id="DejaVuSans-70" transform="scale(0.015625)"/>
     </defs>
     <use xlink:href="#DejaVuSans-42"/>
     <use x="68.603516" xlink:href="#DejaVuSans-61"/>
     <use x="129.882812" xlink:href="#DejaVuSans-63"/>
     <use x="184.863281" xlink:href="#DejaVuSans-6b"/>
     <use x="242.773438" xlink:href="#DejaVuSans-67"/>
     <use x="306.25" xlink:href="#DejaVuSans-72"/>
     <use x="345.113281" xlink:href="#DejaVuSans-6f"/>
     <use x="406.294922" xlink:href="#DejaVuSans-75"/>
     <use x="469.673828" xlink:href="#DejaVuSans-6e"/>
     <use x="533.052734" xlink:href="#DejaVuSans-64"/>
     <use x="596.529297" xlink:href="#DejaVuSans-20"/>
     <use x="628.316406" xlink:href="#DejaVuSans-73"/>
     <use x="680.416016" xlink:href="#DejaVuSans-70"/>
     <use x="743.892578" xlink:href="#DejaVuSans-65"/>
     <use x="805.416016" xlink:href="#DejaVuSans-63"/>
     <use x="860.396484" xlink:href="#DejaVuSans-74"/>
     <use x="899.605469" xlink:href="#DejaVuSans-72"/>
     <use x="940.71875" xlink:href="#DejaVuSans-61"/>
    </g>
   </g>
   <g id="legend_1">
    <g id="line2d_39">
     <path d="M 375.7625 60.618438 
L 395.7625 60.618438 
" style="fill:none;stroke:#4c72b0;stroke-linecap:round;stroke-width:1.75;"/>
    </g>
    <g id="line2d_40"/>
    <g id="text_22">
     <!-- STLAB_1 background -->
     <g style="fill:#262626;" transform="translate(403.7625 64.118438)scale(0.1 -0.1)">
      <defs>
       <path d="M 3425 4513 
L 3425 3897 
Q 3066 4069 2747 4153 
Q 2428 4238 2131 4238 
Q 1616 4238 1336 4038 
Q 1056 3838 1056 3469 
Q 1056 3159 1242 3001 
Q 1428 2844 1947 2747 
L 2328 2669 
Q 3034 2534 3370 2195 
Q 3706 1856 3706 1288 
Q 3706 609 3251 259 
Q 2797 -91 1919 -91 
Q 1588 -91 1214 -16 
Q 841 59 441 206 
L 441 856 
Q 825 641 1194 531 
Q 1563 422 1919 422 
Q 2459 422 2753 634 
Q 3047 847 3047 1241 
Q 3047 1584 2836 1778 
Q 2625 1972 2144 2069 
L 1759 2144 
Q 1053 2284 737 2584 
Q 422 2884 422 3419 
Q 422 4038 858 4394 
Q 1294 4750 2059 4750 
Q 2388 4750 2728 4690 
Q 3069 4631 3425 4513 
z
" id="DejaVuSans-53" transform="scale(0.015625)"/>
       <path d="M -19 4666 
L 3928 4666 
L 3928 4134 
L 2272 4134 
L 2272 0 
L 1638 0 
L 1638 4134 
L -19 4134 
L -19 4666 
z
" id="DejaVuSans-54" transform="scale(0.015625)"/>
       <path d="M 628 4666 
L 1259 4666 
L 1259 531 
L 3531 531 
L 3531 0 
L 628 0 
L 628 4666 
z
" id="DejaVuSans-4c" transform="scale(0.015625)"/>
       <path d="M 2188 4044 
L 1331 1722 
L 3047 1722 
L 2188 4044 
z
M 1831 4666 
L 2547 4666 
L 4325 0 
L 3669 0 
L 3244 1197 
L 1141 1197 
L 716 0 
L 50 0 
L 1831 4666 
z
" id="DejaVuSans-41" transform="scale(0.015625)"/>
       <path d="M 3263 -1063 
L 3263 -1509 
L -63 -1509 
L -63 -1063 
L 3263 -1063 
z
" id="DejaVuSans-5f" transform="scale(0.015625)"/>
       <path d="M 3116 1747 
Q 3116 2381 2855 2742 
Q 2594 3103 2138 3103 
Q 1681 3103 1420 2742 
Q 1159 2381 1159 1747 
Q 1159 1113 1420 752 
Q 1681 391 2138 391 
Q 2594 391 2855 752 
Q 3116 1113 3116 1747 
z
M 1159 2969 
Q 1341 3281 1617 3432 
Q 1894 3584 2278 3584 
Q 2916 3584 3314 3078 
Q 3713 2572 3713 1747 
Q 3713 922 3314 415 
Q 2916 -91 2278 -91 
Q 1894 -91 1617 61 
Q 1341 213 1159 525 
L 1159 0 
L 581 0 
L 581 4863 
L 1159 4863 
L 1159 2969 
z
" id="DejaVuSans-62" transform="scale(0.015625)"/>
      </defs>
      <use xlink:href="#DejaVuSans-53"/>
      <use x="63.476562" xlink:href="#DejaVuSans-54"/>
      <use x="124.560547" xlink:href="#DejaVuSans-4c"/>
      <use x="182.523438" xlink:href="#DejaVuSans-41"/>
      <use x="250.931641" xlink:href="#DejaVuSans-42"/>
      <use x="319.535156" xlink:href="#DejaVuSans-5f"/>
      <use x="369.535156" xlink:href="#DejaVuSans-31"/>
      <use x="433.158203" xlink:href="#DejaVuSans-20"/>
      <use x="464.945312" xlink:href="#DejaVuSans-62"/>
      <use x="528.421875" xlink:href="#DejaVuSans-61"/>
      <use x="589.701172" xlink:href="#DejaVuSans-63"/>
      <use x="644.681641" xlink:href="#DejaVuSans-6b"/>
      <use x="702.591797" xlink:href="#DejaVuSans-67"/>
      <use x="766.068359" xlink:href="#DejaVuSans-72"/>
      <use x="804.931641" xlink:href="#DejaVuSans-6f"/>
      <use x="866.113281" xlink:href="#DejaVuSans-75"/>
      <use x="929.492188" xlink:href="#DejaVuSans-6e"/>
      <use x="992.871094" xlink:href="#DejaVuSans-64"/>
     </g>
    </g>
    <g id="line2d_41">
     <path d="M 375.7625 75.574688 
L 395.7625 75.574688 
" style="fill:none;stroke:#55a868;stroke-linecap:round;stroke-width:1.75;"/>
    </g>
    <g id="line2d_42"/>
    <g id="text_23">
     <!-- STLAB_2 background -->
     <g style="fill:#262626;" transform="translate(403.7625 79.074688)scale(0.1 -0.1)">
      <use xlink:href="#DejaVuSans-53"/>
      <use x="63.476562" xlink:href="#DejaVuSans-54"/>
      <use x="124.560547" xlink:href="#DejaVuSans-4c"/>
      <use x="182.523438" xlink:href="#DejaVuSans-41"/>
      <use x="250.931641" xlink:href="#DejaVuSans-42"/>
      <use x="319.535156" xlink:href="#DejaVuSans-5f"/>
      <use x="369.535156" xlink:href="#DejaVuSans-32"/>
      <use x="433.158203" xlink:href="#DejaVuSans-20"/>
      <use x="464.945312" xlink:href="#DejaVuSans-62"/>
      <use x="528.421875" xlink:href="#DejaVuSans-61"/>
      <use x="589.701172" xlink:href="#DejaVuSans-63"/>
      <use x="644.681641" xlink:href="#DejaVuSans-6b"/>
      <use x="702.591797" xlink:href="#DejaVuSans-67"/>
      <use x="766.068359" xlink:href="#DejaVuSans-72"/>
      <use x="804.931641" xlink:href="#DejaVuSans-6f"/>
      <use x="866.113281" xlink:href="#DejaVuSans-75"/>
      <use x="929.492188" xlink:href="#DejaVuSans-6e"/>
      <use x="992.871094" xlink:href="#DejaVuSans-64"/>
     </g>
    </g>
   </g>
  </g>
 </g>
 <defs>
  <clipPath id="p422a10c4b2">
   <rect height="298.98" width="446.4" x="72" y="47.52"/>
  </clipPath>
 </defs>
</svg>
